<svg id="Layer_1" data-name="Layer 1" xmlns="http://www.w3.org/2000/svg" viewBox="0 0 512 512"><title>camera-flat</title><path d="M0,256C0,114.61,114.61,0,256,0S512,114.63,512,256,397.38,512,256,512,0,397.39,0,256Z" fill="#00b6eb"/><path d="M380.39,339.26c0,7.74-5.32,14-11.87,14h-225c-6.56,0-11.87-6.27-11.87-14V199.12c0-7.74,5.31-14,11.87-14h225c6.55,0,11.87,6.27,11.87,14ZM264.77,230.61A53.41,53.41,0,1,0,318.18,284,53.41,53.41,0,0,0,264.77,230.61ZM215.31,204.4c0-5.74-3.56-10.39-7.95-10.39h-25c-4.39,0-8,4.65-8,10.39h0c0,5.74,3.56,10.39,8,10.39h25c4.39,0,7.95-4.65,7.95-10.39Z" fill="#fff"/><rect x="160.57" y="167.97" width="34.95" height="17.14" fill="#fff"/><rect x="226.52" y="158.73" width="77.81" height="29.67" fill="#fff"/><circle cx="264.05" cy="283.75" r="42.04" fill="#fff"/></svg>